<svg width="80" height="60" viewBox="0 0 80 60" fill="none" xmlns="http://www.w3.org/2000/svg">
<path d="M59.3125 34.6641C58.7383 34.8516 58.125 35.0508 57.4766 35.25C56.125 35.6641 54.6484 36.0742 53.0508 36.4883C50.8867 37.0508 48.5 37.6016 45.9492 38.1133C38.9375 39.5117 28.2266 37.7891 24.25 37.0508C24.625 37.0859 25.0117 37.1133 25.3984 37.125C37.375 38.6484 44.1992 37.125 52.5742 34.8516C53.0742 34.7109 53.5742 34.5742 54.0742 34.4375C55.1992 34.125 56.3633 33.8125 57.5625 33.4883C57.8008 33.4258 58.0391 33.3633 58.2734 33.2891C58.6641 33.7383 59 34.1992 59.3125 34.6641Z" stroke="#211B24" stroke-width="0.625" stroke-miterlimit="10"/>
<path d="M72.1133 22.3008C72.1133 22.3125 72.1133 22.3125 72.1016 22.3242M72.1016 22.3242C70.6484 27.3633 67.1758 31.3633 64.3125 32.7383C64.2617 32.7617 64.2109 32.7891 64.1641 32.8125C63.9258 32.2383 63.6133 31.7109 63.3008 31.25C69.8984 27.7383 71.9375 22.75 72.1016 22.3242Z" stroke="#211B24" stroke-width="0.625" stroke-miterlimit="10"/>
<path d="M22.5742 36.7891C22.5742 36.7891 29.8985 30.5 23.6875 22.1016C23.6875 22.1016 16.2383 29.1992 22.5742 36.7891Z" stroke="#211B24" stroke-width="1.375" stroke-miterlimit="10"/>
<path d="M22.5742 36.7891C22.5742 36.7891 16.2383 29.5 7.88673 35.7617C7.87501 35.7617 15.0235 43.1641 22.5742 36.7891Z" stroke="#211B24" stroke-width="1.375" stroke-miterlimit="10"/>
<path d="M72.125 22.6758C72.125 22.6016 72.125 22.5391 72.1133 22.4609C72.1016 22.2891 72.0508 22.1133 72 21.9492C71.9141 21.7109 71.7891 21.5 71.625 21.3125C70.2266 19.6484 65.625 15.0234 59.3242 16.875C51.6992 19.125 45.8242 25.75 42.6992 28.375C39.5742 31 22.5742 36.875 22.5742 36.875C22.5742 36.875 22.75 36.9375 23.0859 37.0391C23.4609 37.1016 23.8516 37.1367 24.25 37.1758C24.625 37.2109 25.0117 37.2383 25.3984 37.25C33.4883 37.6016 46.2734 34.6484 51.4492 33.4141C53.0117 33.0391 54.5508 32.5234 56.0234 31.8867C56.1758 31.8242 56.3242 31.7617 56.4766 31.6875C57.8516 31.0859 59.6016 30.2734 61.4492 29.3125C61.625 29.4609 62.5 30.2266 63.2891 31.375C63.6016 31.8359 63.9141 32.3633 64.1484 32.9375C64.3516 33.4258 64.5117 33.9492 64.5859 34.5C72.4609 29.7617 72.1133 24.6758 72.125 22.6758Z" stroke="#211B24" stroke-width="1.375" stroke-miterlimit="10" stroke-linejoin="round"/>
<path d="M60.375 36.6641C59.9141 36.8633 59.4375 37.0508 58.9492 37.25C58.5859 37.3867 58.2383 37.5234 57.875 37.6484C56.375 38.1875 54.8516 38.6133 53.3125 38.9492C39.7891 41.9492 25.8867 37.9258 23.0859 37.0391" stroke="#211B24" stroke-width="1.375" stroke-miterlimit="10"/>
<path d="M61.4609 29.3242C65.3867 27.3125 69.7734 24.6484 71.9883 21.9492" stroke="#211B24" stroke-width="1.375" stroke-miterlimit="10"/>
<path d="M61.6992 40.4258C61.6992 40.4258 61.375 38.7266 60.375 36.6641C60.0859 36.0625 59.7266 35.4258 59.3125 34.8008C59.0117 34.3359 58.6641 33.875 58.2891 33.4258C57.7617 32.8125 57.1758 32.2266 56.5 31.6992C57.875 31.1016 59.625 30.2891 61.4766 29.3242C61.6484 29.4766 62.5234 30.2383 63.3125 31.3867C63.625 31.8516 63.9375 32.375 64.1758 32.9492C64.375 33.4375 64.5391 33.9609 64.6133 34.5117C64.875 36.3125 64.2734 38.3984 61.6992 40.4258Z" stroke="#211B24" stroke-width="1.375" stroke-miterlimit="10"/>
<path d="M52.7109 43.5625C52.7109 43.5625 53.375 41.5508 53.3008 38.9375C54.8242 38.6016 56.3633 38.1758 57.8633 37.6367C57.9766 39.9141 57.1992 42.8242 52.7109 43.5625Z" stroke="#211B24" stroke-width="1.375" stroke-miterlimit="10"/>
<path d="M30.8633 31.5625C30.75 31.5391 30.6484 31.4492 30.5859 31.3125C30.5742 31.2734 30.5391 31.1992 30.5117 31.0742C30.0508 29.2266 29.4766 27.6016 28.8008 26.1875C28.4766 25.5117 28.1992 25 27.9492 24.6367C27.7109 24.2734 27.3984 23.9609 27.0391 23.7266C26.8867 23.6367 26.8008 23.5625 26.7734 23.5C26.6992 23.3359 26.75 23.1016 26.9492 22.7891C27.1367 22.4766 27.3633 22.2617 27.6133 22.1484C27.9141 22.0117 28.1484 22.0508 28.3516 22.25C28.5508 22.4609 28.75 22.7891 28.9766 23.25C29.0859 23.4883 29.3125 24.0508 29.6484 24.9375C30.1016 26.2266 30.5 27.25 30.8633 27.9883C31.2891 28.875 31.7109 29.6133 32.125 30.1875C32.2617 30.3867 32.25 30.625 32.0625 30.875C31.875 31.1367 31.6367 31.3359 31.3516 31.4766C31.1367 31.5508 30.9766 31.5859 30.8633 31.5625ZM34.6367 29.0391C33.9141 28.8516 33.2109 28.5391 32.5391 28.1133C31.875 27.6875 31.3242 27.2617 30.9258 26.8242C30.7266 26.6133 30.5742 26.4258 30.4883 26.2383C30.3867 26.0391 30.3516 25.75 30.3633 25.3984C30.3867 24.8633 30.5117 24.1875 30.7109 23.3516C30.9258 22.5234 31.1992 21.75 31.5508 21.0508C31.8984 20.3516 32.3008 19.8867 32.7383 19.6758C32.9766 19.5625 33.1875 19.5508 33.3867 19.625C33.5742 19.7109 33.7266 19.8516 33.8242 20.0625C33.9492 20.3242 34 20.6133 33.9609 20.9258C33.9375 21.2383 33.8125 21.4492 33.6133 21.5391C33.5508 21.5625 33.4492 21.6016 33.3359 21.625C33.2109 21.6484 33.1133 21.6875 33.0234 21.7266C32.7109 21.875 32.4492 22.1367 32.2266 22.5117C32.0508 22.8242 31.8633 23.2734 31.6758 23.8516C31.4883 24.4258 31.3633 25 31.2891 25.5625C31.7891 26.0117 32.4883 26.4375 33.3867 26.8125C34.0859 27.1133 34.6875 27.2734 35.1992 27.3008C35.7109 27.3242 36.2383 27.2109 36.8008 26.9375C36.9141 26.8867 37 26.875 37.0742 26.9141C37.1484 26.9492 37.2109 27.0234 37.2734 27.1367C37.4258 27.4375 37.4375 27.7617 37.3359 28.0859C37.2383 28.4258 36.9766 28.6875 36.5625 28.8867C36.0117 29.1875 35.375 29.2266 34.6367 29.0391Z" fill="black" stroke="#211B24" stroke-width="0.125"/>
<path d="M37.6368 27.1875C37.4766 26.8516 37.3516 26.4141 37.2618 25.875C37.1758 25.3242 37.0508 24.8633 36.8633 24.4766C36.7735 24.2891 36.6641 24.125 36.5508 24.0117C36.4375 23.8984 36.2891 23.8359 36.1016 23.8359C35.9141 23.8359 35.7735 23.8125 35.6641 23.7891C35.5508 23.75 35.4766 23.6875 35.4258 23.5859C35.3633 23.4609 35.3633 23.2891 35.4141 23.0742C35.461 22.8633 35.5625 22.6641 35.711 22.4609C35.8633 22.2617 36.0391 22.125 36.2383 22.0234C36.5391 21.875 36.8008 21.8867 37.0118 22.0625C37.2266 22.2383 37.4141 22.5 37.586 22.8633C37.7891 23.2617 37.9766 23.8516 38.1641 24.6016C38.2618 25 38.375 25.3242 38.4883 25.5508C38.586 25.7734 38.7266 25.9141 38.875 25.9883C39.0391 26.0508 39.25 26.0859 39.5235 26.1016C39.625 26.1133 39.6993 26.1484 39.75 26.25C39.8008 26.3516 39.8125 26.5 39.8125 26.6875C39.8008 26.875 39.7383 27.0742 39.6133 27.2891C39.4883 27.5 39.2891 27.6641 39.0118 27.8008C38.4141 28.0508 37.961 27.8633 37.6368 27.1875ZM34.8985 20.8359C34.6758 20.7617 34.5 20.5859 34.375 20.3242C34.25 20.0508 34.2383 19.7734 34.3243 19.5C34.4141 19.2383 34.6016 19.0391 34.875 18.8984C35.1485 18.7617 35.3985 18.7383 35.625 18.8125C35.8516 18.8867 36.0235 19.0508 36.1485 19.3125C36.2891 19.6016 36.3125 19.875 36.211 20.1484C36.125 20.4258 35.9258 20.625 35.6368 20.7617C35.3633 20.8867 35.125 20.9141 34.8985 20.8359Z" fill="black" stroke="#211B24" stroke-width="0.125"/>
<path d="M40.9767 26.2266C40.5509 25.9883 40.1876 25.5625 39.8868 24.9375C39.7501 24.6484 39.5861 24.2266 39.4142 23.6484L39.0118 22.4258C38.8517 22.5742 38.6642 22.6875 38.4767 22.7891C38.3751 22.8359 38.2892 22.8516 38.2267 22.8359C38.1642 22.8242 38.1017 22.7734 38.0626 22.6758C37.9611 22.4492 37.9493 22.1016 38.0392 21.6016C38.1251 21.1016 38.2736 20.6367 38.4767 20.1875C38.6759 19.7383 38.8868 19.4766 39.1017 19.375C39.3009 19.2734 39.4884 19.3984 39.6486 19.75C39.7267 19.9141 39.8009 20.1133 39.8634 20.3633C40.2736 20.0508 40.6134 19.8359 40.8517 19.7266C41.0743 19.625 41.2501 19.5742 41.3986 19.6016C41.5509 19.625 41.6759 19.7383 41.7618 19.9375C41.8634 20.1641 41.9259 20.3984 41.9142 20.6758C41.9142 20.9492 41.8517 21.1133 41.7267 21.1758C41.6368 21.2266 41.5001 21.2617 41.3243 21.3008C40.9142 21.3867 40.5236 21.5234 40.1486 21.7109C40.3243 22.4883 40.5001 23.0859 40.7111 23.5117C40.9611 24.0234 41.2618 24.3242 41.6134 24.4141C41.9611 24.5 42.3986 24.4141 42.9376 24.1484C43.1017 24.0742 43.2111 24.0508 43.3009 24.0625C43.3868 24.0859 43.4611 24.1641 43.5236 24.2891C43.6759 24.5859 43.6368 24.9258 43.4259 25.2891C43.2111 25.6484 42.8868 25.9375 42.4259 26.1484C41.8751 26.4492 41.3868 26.4609 40.9767 26.2266Z" fill="black" stroke="#211B24" stroke-width="0.125"/>
</svg>
