<svg width="47" height="47" viewBox="0 0 47 47" fill="none" xmlns="http://www.w3.org/2000/svg">
<path d="M23.5002 4.7C13.1179 4.7 4.7002 13.1177 4.7002 23.5C4.7002 32.3094 10.7663 39.6805 18.9443 41.7203C18.8566 41.4665 18.8002 41.172 18.8002 40.807V37.5937C18.0372 37.5937 16.7588 37.5937 16.4377 37.5937C15.1514 37.5937 14.0078 37.0407 13.4532 36.013C12.8375 34.8709 12.7309 33.124 11.205 32.0556C10.7522 31.6999 11.0969 31.2942 11.6186 31.349C12.5821 31.6216 13.3811 32.2827 14.1331 33.2635C14.882 34.2458 15.2345 34.4682 16.6335 34.4682C17.3119 34.4682 18.3271 34.4291 19.2827 34.2787C19.7966 32.9736 20.6849 31.772 21.7706 31.2049C15.5102 30.561 12.5226 27.4464 12.5226 23.218C12.5226 21.3975 13.2981 19.6366 14.6156 18.153C14.1832 16.6803 13.6396 13.677 14.7817 12.5333C17.5986 12.5333 19.3015 14.3601 19.7104 14.8536C21.1142 14.3726 22.6558 14.1 24.2757 14.1C25.8988 14.1 27.4466 14.3726 28.8535 14.8567C29.2577 14.3663 30.9622 12.5333 33.7854 12.5333C34.9322 13.6786 34.3823 16.6944 33.9452 18.1639C35.2549 19.6444 36.0257 21.4007 36.0257 23.218C36.0257 27.4433 33.0428 30.5563 26.7918 31.2033C28.512 32.101 29.7669 34.6233 29.7669 36.5237V40.807C29.7669 40.9699 29.7308 41.0874 29.712 41.2268C37.0378 38.6591 42.3002 31.7031 42.3002 23.5C42.3002 13.1177 33.8825 4.7 23.5002 4.7Z" fill="#211B24"/>
</svg>
